# xmcd
#
# Track frame offsets:
#	150
#	19797
#	36428
#	49479
#	65215
#
# Disc length: 1061 seconds
#
# Revision: 1
# Processed by: cddbd v1.5.2PL0 Copyright (c) Steve Scherf et al.
# Submitted via: audiograbber 1.83.01
#
DISCID=49042305
DTITLE=Annett Luisan - kleine ,große Liebe_Bonus CD berlin session
DYEAR=2019
DGENRE=Pop
TTITLE0=nur geträumt
TTITLE1=verdammt lang her
TTITLE2=close
TTITLE3=für den rest deines lebens
TTITLE4=saboteur
EXTD=kleien große Liebe, Bonus CD
EXTT0=
EXTT1=
EXTT2=
EXTT3=
EXTT4=
PLAYORDER=
